<svg xmlns="http://www.w3.org/2000/svg" xmlns:xlink="http://www.w3.org/1999/xlink" version="1.1" x="0px" y="0px" viewBox="0 0 100 125" enable-background="new 0 0 100 100" xml:space="preserve"><g><path d="M82.853,38.127v12.817c0,0.826,2.132,0.826,2.132,0v-7.443c0-5.101,7.562-5.101,7.562,0v56.16H60.3V88.896   c0,0-15.33-9.835-15.33-15.678V43.686c0-5.917,8.317-6.193,8.317,0v17.02c0,0.893,2.407,0.893,2.407,0V13.109   c0-5.087,7.631-5.087,7.631,0v37.835c0,0.826,2.132,0.826,2.132,0V33.46c0-5.096,7.63-5.096,7.63,0v17.484   c0,0.826,2.131,0.826,2.131,0V38.127C75.218,33.025,82.853,33.025,82.853,38.127z"/><path d="M50.833,21.453c-0.711,0-1.409-0.342-1.835-0.974c-1.407-2.083-2.151-4.516-2.151-7.039c0-6.94,5.647-12.587,12.585-12.587   c6.94,0,12.587,5.647,12.587,12.587c0,2.445-0.702,4.82-2.034,6.866c-0.671,1.024-2.04,1.314-3.063,0.646   c-1.024-0.668-1.313-2.037-0.646-3.063c0.862-1.325,1.319-2.862,1.319-4.449c0-4.5-3.661-8.161-8.162-8.161   c-4.498,0-8.159,3.662-8.159,8.161c0,1.636,0.481,3.214,1.393,4.56c0.682,1.014,0.419,2.389-0.595,3.074   C51.69,21.33,51.259,21.453,50.833,21.453L50.833,21.453z"/><path d="M84.822,16.786c-4.34,0-7.872-3.532-7.872-7.875c0-4.34,3.532-7.873,7.872-7.873c4.341,0,7.875,3.532,7.875,7.873   C92.697,13.254,89.163,16.786,84.822,16.786L84.822,16.786z M84.822,5.327c-1.977,0-3.585,1.608-3.585,3.584   c0,1.979,1.608,3.586,3.585,3.586c1.979,0,3.587-1.608,3.587-3.586C88.409,6.935,86.801,5.327,84.822,5.327L84.822,5.327z"/><path d="M34.512,16.786c-4.341,0-7.873-3.532-7.873-7.875c0-4.34,3.531-7.873,7.873-7.873c4.341,0,7.874,3.532,7.874,7.873   C42.386,13.254,38.853,16.786,34.512,16.786L34.512,16.786z M34.512,5.327c-1.977,0-3.585,1.608-3.585,3.584   c0,1.979,1.608,3.586,3.585,3.586c1.978,0,3.585-1.608,3.585-3.586C38.098,6.935,36.49,5.327,34.512,5.327L34.512,5.327z"/><path d="M13.042,16.786c-4.342,0-7.873-3.532-7.873-7.875c0-4.34,3.531-7.873,7.873-7.873c4.341,0,7.874,3.532,7.874,7.873   C20.916,13.254,17.383,16.786,13.042,16.786L13.042,16.786z M13.042,5.327c-1.977,0-3.584,1.608-3.584,3.584   c0,1.979,1.608,3.586,3.584,3.586c1.978,0,3.585-1.608,3.585-3.586C16.627,6.935,15.02,5.327,13.042,5.327L13.042,5.327z"/></g><text x="0" y="115" fill="#000000" font-size="5px" font-weight="bold" font-family="'Helvetica Neue', Helvetica, Arial-Unicode, Arial, Sans-serif">Created by Luis Prado</text><text x="0" y="120" fill="#000000" font-size="5px" font-weight="bold" font-family="'Helvetica Neue', Helvetica, Arial-Unicode, Arial, Sans-serif">from the Noun Project</text></svg>